<svg width="128" height="128" viewBox="0 0 128 128" fill="none" xmlns="http://www.w3.org/2000/svg">
<g clip-path="url(#clip0_2_2)">
<path d="M41.632 53.488C48.416 53.488 52.416 57.744 53.632 66.256C53.632 73.808 50.112 79.216 43.072 82.48C42.304 82.864 41.248 83.056 39.904 83.056H39.232L37.12 82.864V83.056L37.504 108.688C37.056 110.672 36.032 111.664 34.432 111.664C32.64 111.088 31.744 110.16 31.744 108.88L30.88 56.656C30.88 54.992 31.872 54.128 33.856 54.064L35.872 54.928C37.664 53.968 39.584 53.488 41.632 53.488ZM36.832 63.664L36.544 66.64L36.832 76.816L39.52 77.488C43.808 77.488 46.592 74.352 47.872 68.08V66.64C47.424 61.584 45.632 59.056 42.496 59.056H41.056C38.24 59.056 36.832 60.592 36.832 63.664ZM67.3525 25.936C76.3765 25.936 85.0805 30.736 93.4645 40.336C96.0245 45.392 97.3045 50.288 97.3045 55.024C97.3045 66.16 91.6405 74.352 80.3125 79.6C76.6645 81.2 72.7285 82 68.5045 82H66.1045C63.7365 81.936 62.5525 80.944 62.5525 79.024H62.2645C62.2645 77.296 63.3525 76.4 65.5285 76.336H67.7365V75.76H67.9285C63.9605 58.928 61.9765 46.416 61.9765 38.224H61.6885L59.2885 39.76C57.6245 39.76 56.6325 38.64 56.3125 36.4C56.3125 32.88 58.2965 29.808 62.2645 27.184C63.8645 26.352 65.5605 25.936 67.3525 25.936ZM68.5045 31.6H67.7365V36.208C67.7365 46.704 69.7205 59.888 73.6885 75.76H73.9765C85.8165 72.56 91.7365 65.648 91.7365 55.024C91.7365 43.632 85.1125 36.016 71.8645 32.176C71.0965 31.792 69.9765 31.6 68.5045 31.6Z" fill="url(#paint0_linear_2_2)"/>
</g>
<defs>
<linearGradient id="paint0_linear_2_2" x1="78.25" y1="24.3191" x2="47.9084" y2="86.0235" gradientUnits="userSpaceOnUse">
<stop stop-color="#B80505"/>
<stop offset="1" stop-opacity="0.88"/>
</linearGradient>
<clipPath id="clip0_2_2">
<rect width="128" height="128" fill="white"/>
</clipPath>
</defs>
</svg>
